# xmcd
#
# Track frame offsets:
#	150
#	17428
#	35395
#	51008
#	69863
#	92813
#	102813
#	123445
#	136495
#	155580
#	172405
#	191588
#	204483
#	223250
#
# Disc length: 3249 seconds
#
# Revision: 0
# Processed by: cddbd v1.5.2PL0 Copyright (c) Steve Scherf et al.
# Submitted via: EasyCDDAExtractor 16.0.1.1
#
DISCID=c60caf0e
DTITLE=John Denver - The Very Best Of
DYEAR=1900
DGENRE=Country
TTITLE0=Calypso
TTITLE1=Windsong
TTITLE2=Rocky Mountain Suite (Cold Nights In Canada)
TTITLE3=Rocky Mountain High
TTITLE4=Sunshine On My Shoulders
TTITLE5=The Eagle And The Hawk
TTITLE6=Eclipse
TTITLE7=The Flower That Shattered The Stone
TTITLE8=Raven's Child
TTITLE9=Children Of The Universe
TTITLE10=To The Wild Country
TTITLE11=American Child
TTITLE12=Islands
TTITLE13=Earth Day Every Day (Celebrate)
EXTD=
EXTT0=
EXTT1=
EXTT2=
EXTT3=
EXTT4=
EXTT5=
EXTT6=
EXTT7=
EXTT8=
EXTT9=
EXTT10=
EXTT11=
EXTT12=
EXTT13=
PLAYORDER=
